<svg fill="none" height="24.1" viewBox="0 0 24 24" width="24.1" xmlns="http://www.w3.org/2000/svg">
    <path
        d="M6.99805 14.501C6.99805 15.0535 7.44595 15.5014 7.99846 15.5014H16.0018C16.5543 15.5014 17.0022 15.0535 17.0022 14.501"
        stroke="black" stroke-linecap="round" stroke-linejoin="round" stroke-width="1.5" />
    <path
        d="M6.99805 14.501V9.53185C6.99805 9.34738 7.09959 9.17788 7.26224 9.09085C7.42488 9.00381 7.62223 9.01335 7.77572 9.11567L9.9993 10.598L11.584 8.22104C11.6767 8.08188 11.8329 7.99829 12.0002 7.99829C12.1674 7.99829 12.3236 8.08188 12.4164 8.22104L14.001 10.598L16.2245 9.11565C16.378 9.01333 16.5754 9.00379 16.738 9.09083C16.9007 9.17787 17.0022 9.34737 17.0022 9.53185V14.501"
        stroke="black" stroke-linecap="round" stroke-linejoin="round" stroke-width="1.5" />
    <circle cx="12.0003" cy="12" r="9.00375" stroke="black" stroke-linecap="round" stroke-linejoin="round"
        stroke-width="1.5" />
</svg>
