<?xml version="1.0" ?>
<svg width="371" height="429" viewBox="0 0 371 429" fill="none" xmlns="http://www.w3.org/2000/svg">
    <path d="M143.667 308.2C143.667 318.829 152.356 327.5 163 327.5H218C228.644 327.5 237.333 318.829 237.333 308.2V161.8C237.333 151.171 228.644 142.5 218 142.5H163C152.356 142.5 143.667 151.171 143.667 161.8V308.2ZM163 53H309.667C319.209 53 327 60.7793 327 70.3V308.2C327 317.721 319.209 325.5 309.667 325.5H254.667C244.023 325.5 235.333 334.171 235.333 344.8V399.7C235.333 409.221 227.543 417 218 417H71.3333C61.7908 417 54 409.221 54 399.7V161.8C54 152.279 61.7908 144.5 71.3333 144.5H126.333C136.977 144.5 145.667 135.829 145.667 125.2V70.3C145.667 60.7793 153.457 53 163 53Z"
          stroke="#D4F768" stroke-width="2"/>
    <path d="M194.416 427.832C253.74 427.832 301.832 379.74 301.832 320.416C301.832 261.092 253.74 213 194.416 213C135.092 213 87 261.092 87 320.416C87 379.74 135.092 427.832 194.416 427.832Z"
          fill="white" stroke="#D4F768" stroke-width="1.7126"/>
    <path fill-rule="evenodd" clip-rule="evenodd"
          d="M265.356 399.562C246.322 416.708 221.125 427.143 193.49 427.143C176.472 427.143 160.379 423.186 146.08 416.141C152.242 330.522 166.077 317.365 166.077 317.365V307.212L231.683 303.992L232.459 314.512C260.84 332.305 265.58 372.901 265.356 399.562Z"
          fill="white"/>
    <path d="M265.356 399.562L265.714 399.959C265.825 399.859 265.889 399.716 265.89 399.567L265.356 399.562ZM146.08 416.141L145.547 416.102C145.531 416.319 145.649 416.524 145.844 416.62L146.08 416.141ZM166.077 317.365L166.445 317.752C166.551 317.651 166.611 317.511 166.611 317.365H166.077ZM166.077 307.212L166.051 306.679C165.766 306.693 165.543 306.927 165.543 307.212H166.077ZM231.683 303.992L232.216 303.953C232.194 303.664 231.946 303.444 231.657 303.459L231.683 303.992ZM232.459 314.512L231.926 314.551C231.939 314.721 232.031 314.874 232.175 314.965L232.459 314.512ZM193.49 427.677C221.262 427.677 246.585 417.189 265.714 399.959L264.999 399.165C246.059 416.226 220.988 426.609 193.49 426.609V427.677ZM145.844 416.62C160.214 423.7 176.389 427.677 193.49 427.677V426.609C176.556 426.609 160.543 422.671 146.316 415.662L145.844 416.62ZM166.077 317.365C165.709 316.978 165.708 316.979 165.708 316.979C165.707 316.979 165.707 316.98 165.706 316.981C165.705 316.982 165.703 316.983 165.702 316.985C165.699 316.988 165.695 316.992 165.69 316.997C165.68 317.006 165.667 317.019 165.651 317.036C165.62 317.069 165.575 317.117 165.519 317.182C165.406 317.31 165.245 317.505 165.041 317.78C164.634 318.329 164.057 319.199 163.349 320.504C161.935 323.114 160 327.469 157.878 334.491C153.634 348.534 148.63 373.27 145.547 416.102L146.612 416.179C149.692 373.393 154.687 348.741 158.9 334.8C161.007 327.831 162.916 323.546 164.289 321.013C164.975 319.747 165.526 318.92 165.9 318.415C166.087 318.163 166.229 317.991 166.322 317.886C166.368 317.833 166.402 317.797 166.423 317.775C166.433 317.764 166.44 317.757 166.444 317.753C166.446 317.751 166.447 317.75 166.447 317.75C166.447 317.75 166.447 317.75 166.447 317.75C166.446 317.751 166.446 317.751 166.446 317.751C166.446 317.752 166.445 317.752 166.077 317.365ZM165.543 307.212V317.365H166.611V307.212H165.543ZM231.657 303.459L166.051 306.679L166.103 307.745L231.709 304.525L231.657 303.459ZM232.992 314.473L232.216 303.953L231.15 304.031L231.926 314.551L232.992 314.473ZM265.89 399.567C266.003 386.208 264.872 369.335 260.146 353.558C255.421 337.783 247.083 323.05 232.743 314.059L232.175 314.965C246.216 323.767 254.439 338.229 259.123 353.865C263.806 369.499 264.934 386.254 264.822 399.558L265.89 399.567Z"
          fill="#1A1A1A"/>
    <path d="M166.088 318.379L232.459 315.516" stroke="black" stroke-width="1.17979" stroke-miterlimit="10"/>
    <path d="M179.649 360.434L193.242 365.972L200.521 424.801" stroke="black" stroke-width="1.17979"
          stroke-miterlimit="10"/>
    <path d="M122.32 203.391C125.907 191.728 138.43 185.34 149.978 189.284C161.2 193.123 167.252 205.279 163.518 216.544L152.348 250.275L112.482 235.328L122.32 203.381V203.391Z"
          fill="#D4F768" stroke="#1A1A1A" stroke-width="1.0682" stroke-linecap="round" stroke-linejoin="round"/>
    <path fill-rule="evenodd" clip-rule="evenodd"
          d="M106.457 255.26L79.6107 204.356C79.6107 204.356 80.649 188.76 54.7425 187.826V187.847C54.6575 187.842 54.5724 187.836 54.4872 187.831C54.2256 187.813 53.9626 187.795 53.6937 187.795H45.0302C43.4255 187.795 41.9571 188.928 41.7368 190.522C41.4851 192.368 42.7752 193.952 44.5058 194.172L53.2427 195.41L41.3592 198.577L39.1357 199.395L22.952 188.697C21.6619 187.774 19.8579 188.204 19.1132 189.599C18.5259 190.7 18.7881 192.053 19.7425 192.85C20.5264 193.502 21.6868 194.498 23.0041 195.629C23.3612 195.935 23.7299 196.252 24.1057 196.574L20.5292 194.434C19.1657 193.616 17.4036 194.182 16.7743 195.64C16.2813 196.784 16.6484 198.105 17.6658 198.829C18.4536 199.389 19.4475 200.086 20.5155 200.836L20.8543 201.073L19.6167 200.591C18.2532 200.056 16.6484 200.444 15.8093 201.65C14.6766 203.286 15.3583 205.51 17.1519 206.255L34.8354 213.659C37.8876 214.939 40.8034 215.736 44.4009 214.887L60.1651 211.174L94.0351 305.986C95.4044 311.631 99.1618 316.609 104.657 319.383C115.785 325.015 129.305 319.425 133.228 307.594L152.359 250.295L112.492 235.349L106.461 255.258L106.457 255.26Z"
          fill="white"/>
    <path d="M106.457 255.26L105.985 255.509C106.051 255.635 106.164 255.729 106.299 255.77C106.435 255.812 106.581 255.799 106.706 255.733L106.457 255.26ZM79.6104 204.356L79.0775 204.321C79.0709 204.419 79.0918 204.518 79.138 204.605L79.6104 204.356ZM54.7422 187.826L54.7615 187.293C54.6166 187.287 54.4758 187.341 54.3714 187.442C54.2671 187.543 54.2081 187.681 54.2081 187.826H54.7422ZM54.7422 187.847L54.7099 188.38C54.8569 188.389 55.0011 188.337 55.1083 188.236C55.2155 188.135 55.2763 187.995 55.2763 187.847H54.7422ZM54.4869 187.831L54.5232 187.298L54.5155 187.297L54.4869 187.831ZM54.4869 187.831L54.4506 188.364H54.4582L54.4869 187.831ZM41.7365 190.522L41.2075 190.449L41.2073 190.45L41.7365 190.522ZM44.5055 194.172L44.5804 193.643L44.5729 193.642L44.5055 194.172ZM53.2424 195.41L53.3799 195.926C53.6253 195.86 53.7907 195.631 53.7755 195.378C53.7603 195.124 53.5687 194.916 53.3173 194.881L53.2424 195.41ZM41.3589 198.577L41.2214 198.061C41.2055 198.065 41.1899 198.07 41.1745 198.076L41.3589 198.577ZM39.1354 199.395L38.8409 199.841C38.9826 199.934 39.1604 199.955 39.3198 199.896L39.1354 199.395ZM22.9517 188.697L22.6409 189.131C22.6463 189.135 22.6517 189.139 22.6572 189.142L22.9517 188.697ZM19.1129 189.599L18.6417 189.347V189.348L19.1129 189.599ZM19.7422 192.85L19.3999 193.26L19.4007 193.261L19.7422 192.85ZM23.0038 195.629L22.6559 196.034L23.0038 195.629ZM24.1054 196.574L23.8312 197.032C24.0693 197.175 24.3768 197.111 24.5389 196.886C24.701 196.661 24.6637 196.349 24.453 196.168L24.1054 196.574ZM20.5289 194.434L20.2541 194.892H20.2547L20.5289 194.434ZM16.774 195.64L16.2836 195.429H16.2835L16.774 195.64ZM17.6655 198.829L17.3559 199.264H17.3561L17.6655 198.829ZM20.5152 200.836L20.8273 200.402L20.822 200.398L20.5152 200.836ZM20.5152 200.836L20.2031 201.269L20.2084 201.273L20.5152 200.836ZM20.854 201.073L20.66 201.571C20.9118 201.669 21.1972 201.564 21.3248 201.326C21.4524 201.087 21.382 200.791 21.1608 200.636L20.854 201.073ZM19.6164 200.591L19.4213 201.088H19.4224L19.6164 200.591ZM15.809 201.65L15.3706 201.345L15.3699 201.346L15.809 201.65ZM17.1516 206.255L17.3579 205.762L17.3564 205.761L17.1516 206.255ZM34.8351 213.659L35.0416 213.167H35.0414L34.8351 213.659ZM44.4006 214.887L44.2782 214.367H44.2779L44.4006 214.887ZM60.1648 211.174L60.6677 210.994C60.5763 210.738 60.307 210.591 60.0423 210.654L60.1648 211.174ZM94.0348 305.986L94.5538 305.86C94.5494 305.841 94.544 305.823 94.5377 305.806L94.0348 305.986ZM104.657 319.383L104.898 318.906L104.657 319.383ZM133.228 307.594L132.721 307.425V307.426L133.228 307.594ZM152.359 250.295L152.865 250.465C152.956 250.192 152.815 249.896 152.546 249.795L152.359 250.295ZM112.492 235.349L112.679 234.849C112.541 234.797 112.388 234.805 112.255 234.87C112.123 234.936 112.024 235.053 111.981 235.194L112.492 235.349ZM106.461 255.258L106.71 255.731C106.836 255.664 106.93 255.55 106.972 255.413L106.461 255.258ZM106.929 255.011L80.0828 204.107L79.138 204.605L105.985 255.509L106.929 255.011ZM79.6104 204.356C80.1433 204.392 80.1433 204.391 80.1434 204.391C80.1434 204.39 80.1434 204.39 80.1435 204.389C80.1435 204.388 80.1436 204.387 80.1437 204.385C80.1439 204.382 80.1441 204.378 80.1444 204.373C80.1449 204.363 80.1456 204.35 80.1463 204.333C80.1476 204.298 80.1491 204.249 80.1498 204.187C80.1512 204.062 80.1495 203.883 80.1378 203.657C80.1144 203.205 80.0507 202.564 79.8907 201.796C79.5707 200.259 78.8642 198.205 77.3202 196.123C74.2175 191.94 67.8249 187.763 54.7615 187.293L54.723 188.36C67.5661 188.823 73.6075 192.911 76.4623 196.76C77.897 198.694 78.5501 200.597 78.845 202.014C78.9924 202.722 79.05 203.307 79.071 203.712C79.0815 203.914 79.0828 204.071 79.0817 204.175C79.0811 204.227 79.0799 204.266 79.0789 204.29C79.0784 204.303 79.078 204.311 79.0777 204.316C79.0776 204.319 79.0775 204.321 79.0774 204.321C79.0774 204.322 79.0774 204.322 79.0774 204.322V204.321C79.0774 204.321 79.0775 204.321 79.6104 204.356ZM54.2081 187.826V187.847H55.2763V187.826H54.2081ZM54.7745 187.314C54.6918 187.309 54.6087 187.304 54.5232 187.298L54.4506 188.363C54.5355 188.369 54.6226 188.375 54.7099 188.38L54.7745 187.314ZM54.5155 187.297L54.4582 188.364L54.5155 187.297ZM54.5231 187.298C54.2643 187.28 53.9834 187.261 53.6934 187.261V188.329C53.9413 188.329 54.1863 188.345 54.4506 188.363L54.5231 187.298ZM53.6934 187.261H45.0299V188.329H53.6934V187.261ZM45.0299 187.261C43.1928 187.261 41.4687 188.558 41.2075 190.449L42.2656 190.595C42.4449 189.298 43.6576 188.329 45.0299 188.329V187.261ZM41.2073 190.45C40.9148 192.595 42.4183 194.445 44.4381 194.702L44.5729 193.642C43.1314 193.459 42.0548 192.141 42.2657 190.594L41.2073 190.45ZM44.4306 194.701L53.1675 195.938L53.3173 194.881L44.5804 193.643L44.4306 194.701ZM53.1048 194.893L41.2214 198.061L41.4965 199.093L53.3799 195.926L53.1048 194.893ZM41.1745 198.076L38.951 198.894L39.3198 199.896L41.5434 199.078L41.1745 198.076ZM39.4299 198.95L23.2462 188.251L22.6572 189.142L38.8409 199.841L39.4299 198.95ZM23.2625 188.263C21.7082 187.151 19.5373 187.67 18.6417 189.347L19.5841 189.85C20.1779 188.738 21.6151 188.397 22.6409 189.131L23.2625 188.263ZM18.6417 189.348C17.9358 190.671 18.2504 192.3 19.3999 193.26L20.0846 192.44C19.3251 191.806 19.1153 190.729 19.5842 189.85L18.6417 189.348ZM19.4007 193.261C20.1806 193.91 21.3371 194.902 22.6559 196.034L23.3516 195.223C22.0358 194.094 20.8716 193.095 20.0837 192.44L19.4007 193.261ZM22.6559 196.034C23.0131 196.34 23.3819 196.657 23.7578 196.979L24.453 196.168C24.0773 195.846 23.7088 195.53 23.3516 195.223L22.6559 196.034ZM24.3796 196.115L20.8031 193.976L20.2547 194.892L23.8312 197.032L24.3796 196.115ZM20.8036 193.976C19.1636 192.992 17.0412 193.674 16.2836 195.429L17.2643 195.852C17.7654 194.691 19.1671 194.24 20.2541 194.892L20.8036 193.976ZM16.2835 195.429C15.6911 196.803 16.1329 198.394 17.3559 199.264L17.9751 198.394C17.1633 197.816 16.871 196.764 17.2644 195.852L16.2835 195.429ZM17.3561 199.264C18.1455 199.825 19.1409 200.524 20.2084 201.273L20.822 200.398C19.7536 199.649 18.7611 198.952 17.975 198.393L17.3561 199.264ZM20.2031 201.269H20.2032L20.8273 200.402L20.2031 201.269ZM20.2084 201.273L20.5472 201.511L21.1608 200.636L20.822 200.398L20.2084 201.273ZM21.048 200.576L19.8103 200.093L19.4224 201.088L20.66 201.571L21.048 200.576ZM19.8114 200.094C18.2464 199.48 16.3678 199.912 15.3706 201.345L16.2475 201.955C16.9285 200.976 18.2593 200.632 19.4213 201.088L19.8114 200.094ZM15.3699 201.346C14.042 203.264 14.8415 205.874 16.9468 206.748L17.3564 205.761C15.8746 205.146 15.3106 203.308 16.2482 201.954L15.3699 201.346ZM16.9453 206.747L34.6288 214.152L35.0414 213.167L17.3579 205.762L16.9453 206.747ZM34.6286 214.152C37.7244 215.45 40.7658 216.294 44.5234 215.406L44.2779 214.367C40.8403 215.179 38.0501 214.428 35.0416 213.167L34.6286 214.152ZM44.5231 215.406L60.2872 211.694L60.0423 210.654L44.2782 214.367L44.5231 215.406ZM59.6618 211.353L93.5318 306.165L94.5377 305.806L60.6677 210.994L59.6618 211.353ZM93.5157 306.111C94.9207 311.904 98.7765 317.013 104.416 319.86L104.898 318.906C99.5465 316.205 95.8875 311.358 94.5538 305.86L93.5157 306.111ZM104.416 319.859C115.836 325.639 129.709 319.902 133.735 307.762L132.721 307.426C128.9 318.948 115.735 324.391 104.898 318.906L104.416 319.859ZM133.734 307.763L152.865 250.465L151.852 250.126L132.721 307.425L133.734 307.763ZM152.546 249.795L112.679 234.849L112.304 235.849L152.171 250.795L152.546 249.795ZM111.981 235.194L105.949 255.103L106.972 255.413L113.003 235.504L111.981 235.194ZM106.706 255.733L106.71 255.731L106.211 254.786L106.208 254.788L106.706 255.733Z"
          fill="#1A1A1A"/>
    <path d="M157.771 188.343L140.843 189.612C140.843 189.612 116.342 222.85 166.089 308.226L231.694 305.006L236.634 213.023L228.537 186.906H199.148L157.782 188.343H157.771Z"
          fill="#D4F768" stroke="#1A1A1A" stroke-width="1.0682" stroke-linecap="round" stroke-linejoin="round"/>
    <path d="M138.557 245.115C138.557 245.115 133.68 234.846 136.816 212.107" stroke="#1A1A1A" stroke-width="1.0682"
          stroke-linecap="round" stroke-linejoin="round"/>
    <path d="M248.885 196.88C243.515 185.919 230.153 181.567 219.36 187.272C208.872 192.81 204.802 205.774 210.245 216.315L226.545 247.896L263.59 226.908L248.885 196.89V196.88Z"
          fill="#D4F768" stroke="#1A1A1A" stroke-width="1.0682" stroke-linecap="round" stroke-linejoin="round"/>
    <path d="M226.555 247.887L213.088 221.812" stroke="#1A1A1A" stroke-width="1.0682" stroke-linecap="round"
          stroke-linejoin="round"/>
    <path fill-rule="evenodd" clip-rule="evenodd"
          d="M347.706 186.906C346.878 185.7 345.262 185.322 343.899 185.847L335.991 188.93L343.427 182.637C344.654 181.599 345 179.753 344.077 178.442C343.007 176.932 340.962 176.701 339.609 177.802L332.697 183.371L338.592 175.662C339.567 174.383 339.515 172.505 338.319 171.425C336.956 170.177 334.91 170.397 333.809 171.75L322.167 183.833L310.283 180.665L319.02 179.428C320.751 179.208 322.051 177.624 321.789 175.778C321.569 174.184 320.101 173.051 318.496 173.051H309.832C304.714 173.051 299.721 174.834 295.935 178.232C295.904 178.258 295.872 178.279 295.841 178.3C295.809 178.321 295.778 178.342 295.746 178.368C290.429 182.564 292.369 191.154 292.369 191.154L272.934 246.179L272.786 245.873L272.958 245.275L272.422 245.121L263.6 226.899L226.554 247.886L254.391 301.493C260.107 312.568 274.34 315.977 284.451 308.677C289.452 305.069 292.392 299.545 292.854 293.738L310.713 198.674L322.618 198.695C323.352 198.769 324.097 198.758 324.841 198.695H324.925C326.205 198.58 327.474 198.276 328.68 197.772L346.364 191.511C348.157 190.755 348.839 188.542 347.706 186.906Z"
          fill="white"/>
    <path d="M343.899 185.847L343.707 185.348L343.705 185.349L343.899 185.847ZM347.706 186.906L347.266 187.208L347.267 187.21L347.706 186.906ZM335.991 188.93L335.646 188.523C335.446 188.691 335.398 188.979 335.532 189.204C335.665 189.428 335.941 189.523 336.185 189.428L335.991 188.93ZM343.427 182.637L343.082 182.23L343.427 182.637ZM344.077 178.442L344.514 178.134L344.513 178.133L344.077 178.442ZM339.609 177.802L339.944 178.218L339.946 178.216L339.609 177.802ZM332.697 183.371L332.273 183.047C332.109 183.262 332.131 183.565 332.324 183.754C332.518 183.943 332.822 183.957 333.032 183.787L332.697 183.371ZM338.592 175.662L339.016 175.987V175.986L338.592 175.662ZM338.319 171.425L337.958 171.819L337.961 171.821L338.319 171.425ZM333.809 171.75L334.194 172.121C334.204 172.11 334.214 172.099 334.223 172.087L333.809 171.75ZM322.167 183.833L322.029 184.349C322.217 184.399 322.417 184.343 322.551 184.204L322.167 183.833ZM310.283 180.665L310.208 180.137C309.957 180.172 309.765 180.38 309.75 180.633C309.735 180.887 309.9 181.116 310.146 181.182L310.283 180.665ZM319.02 179.428L318.953 178.898L318.945 178.899L319.02 179.428ZM321.789 175.778L321.26 175.851V175.853L321.789 175.778ZM295.935 178.232L296.277 178.642C296.282 178.638 296.287 178.634 296.292 178.63L295.935 178.232ZM295.746 178.368L296.077 178.788C296.081 178.785 296.085 178.782 296.088 178.779L295.746 178.368ZM292.369 191.154L292.873 191.332C292.906 191.237 292.912 191.134 292.89 191.036L292.369 191.154ZM272.934 246.179L272.454 246.411C272.547 246.605 272.749 246.724 272.964 246.712C273.179 246.7 273.366 246.56 273.438 246.357L272.934 246.179ZM272.786 245.873L272.273 245.726C272.237 245.852 272.248 245.988 272.306 246.106L272.786 245.873ZM272.958 245.275L273.471 245.422C273.51 245.285 273.494 245.139 273.425 245.016C273.356 244.892 273.241 244.8 273.105 244.761L272.958 245.275ZM272.422 245.121L271.942 245.354C272.008 245.491 272.129 245.593 272.275 245.635L272.422 245.121ZM263.6 226.899L264.08 226.666C264.016 226.533 263.9 226.433 263.759 226.389C263.618 226.345 263.465 226.361 263.336 226.434L263.6 226.899ZM226.554 247.886L226.291 247.421C226.041 247.563 225.948 247.877 226.08 248.132L226.554 247.886ZM254.391 301.493L254.866 301.248L254.865 301.246L254.391 301.493ZM284.451 308.677L284.138 308.244L284.451 308.677ZM292.854 293.738L292.329 293.64C292.326 293.658 292.323 293.677 292.322 293.696L292.854 293.738ZM310.713 198.674L310.714 198.14C310.457 198.14 310.236 198.323 310.188 198.576L310.713 198.674ZM322.618 198.695L322.671 198.164C322.654 198.162 322.636 198.161 322.619 198.161L322.618 198.695ZM324.841 198.695V198.161C324.826 198.161 324.811 198.162 324.796 198.163L324.841 198.695ZM324.925 198.695V199.229C324.941 199.229 324.957 199.228 324.973 199.227L324.925 198.695ZM328.68 197.772L328.502 197.269C328.493 197.272 328.483 197.275 328.474 197.279L328.68 197.772ZM346.364 191.511L346.542 192.014C346.552 192.011 346.561 192.007 346.571 192.003L346.364 191.511ZM344.091 186.345C345.26 185.896 346.598 186.236 347.266 187.208L348.146 186.604C347.157 185.163 345.265 184.749 343.707 185.348L344.091 186.345ZM336.185 189.428L344.093 186.344L343.705 185.349L335.797 188.433L336.185 189.428ZM343.082 182.23L335.646 188.523L336.336 189.338L343.772 183.045L343.082 182.23ZM343.64 178.749C344.385 179.806 344.125 181.347 343.082 182.23L343.772 183.045C345.183 181.851 345.616 179.699 344.514 178.134L343.64 178.749ZM339.946 178.216C341.062 177.308 342.752 177.495 343.641 178.751L344.513 178.133C343.263 176.368 340.862 176.093 339.272 177.388L339.946 178.216ZM333.032 183.787L339.944 178.218L339.274 177.386L332.362 182.956L333.032 183.787ZM338.167 175.338L332.273 183.047L333.121 183.696L339.016 175.987L338.167 175.338ZM337.961 171.821C338.923 172.691 338.998 174.249 338.167 175.339L339.016 175.986C340.137 174.517 340.106 172.32 338.677 171.029L337.961 171.821ZM334.223 172.087C335.137 170.965 336.829 170.785 337.958 171.819L338.68 171.031C337.082 169.569 334.683 169.83 333.395 171.413L334.223 172.087ZM322.551 184.204L334.194 172.121L333.424 171.38L321.782 183.462L322.551 184.204ZM310.146 181.182L322.029 184.349L322.304 183.317L310.421 180.149L310.146 181.182ZM318.945 178.899L310.208 180.137L310.358 181.194L319.095 179.957L318.945 178.899ZM321.26 175.853C321.479 177.394 320.397 178.714 318.953 178.898L319.088 179.958C321.104 179.701 322.623 177.853 322.318 175.703L321.26 175.853ZM318.496 173.585C319.868 173.585 321.081 174.553 321.26 175.851L322.318 175.705C322.057 173.814 320.333 172.517 318.496 172.517V173.585ZM309.832 173.585H318.496V172.517H309.832V173.585ZM296.292 178.63C299.973 175.326 304.836 173.585 309.832 173.585V172.517C304.592 172.517 299.47 174.342 295.578 177.835L296.292 178.63ZM296.137 178.745C296.166 178.725 296.221 178.69 296.277 178.642L295.593 177.822C295.591 177.824 295.587 177.827 295.579 177.832C295.571 177.838 295.561 177.845 295.545 177.856L296.137 178.745ZM296.088 178.779C296.091 178.777 296.095 178.774 296.102 178.768C296.111 178.762 296.12 178.756 296.137 178.745L295.545 177.856C295.516 177.875 295.461 177.911 295.404 177.958L296.088 178.779ZM292.369 191.154C292.89 191.036 292.89 191.036 292.89 191.036V191.037V191.036C292.89 191.036 292.89 191.034 292.889 191.033C292.889 191.03 292.887 191.024 292.886 191.017C292.883 191.003 292.878 190.981 292.872 190.951C292.86 190.891 292.843 190.801 292.822 190.684C292.781 190.451 292.728 190.109 292.68 189.686C292.583 188.838 292.509 187.666 292.597 186.37C292.772 183.763 293.591 180.749 296.077 178.788L295.416 177.949C292.584 180.183 291.715 183.562 291.531 186.299C291.438 187.675 291.517 188.913 291.618 189.806C291.669 190.254 291.726 190.617 291.77 190.869C291.792 190.995 291.811 191.094 291.825 191.162C291.832 191.196 291.838 191.223 291.841 191.241C291.843 191.25 291.845 191.257 291.846 191.262C291.847 191.265 291.847 191.267 291.847 191.269C291.848 191.269 291.848 191.27 291.848 191.27C291.848 191.271 291.848 191.271 291.848 191.271C291.848 191.271 291.848 191.272 292.369 191.154ZM273.438 246.357L292.873 191.332L291.865 190.976L272.431 246.001L273.438 246.357ZM272.306 246.106L272.454 246.411L273.415 245.946L273.267 245.64L272.306 246.106ZM272.444 245.128L272.273 245.726L273.3 246.02L273.471 245.422L272.444 245.128ZM272.275 245.635L272.811 245.788L273.105 244.761L272.569 244.608L272.275 245.635ZM263.119 227.131L271.942 245.354L272.903 244.888L264.08 226.666L263.119 227.131ZM226.818 248.351L263.863 227.363L263.336 226.434L226.291 247.421L226.818 248.351ZM254.865 301.246L227.028 247.64L226.08 248.132L253.917 301.739L254.865 301.246ZM284.138 308.244C274.292 315.353 260.432 312.033 254.866 301.248L253.916 301.738C259.782 313.103 274.388 316.601 284.763 309.11L284.138 308.244ZM292.322 293.696C291.871 299.351 289.009 304.731 284.138 308.244L284.763 309.11C289.896 305.408 292.912 299.738 293.387 293.781L292.322 293.696ZM310.188 198.576L292.329 293.64L293.379 293.837L311.238 198.773L310.188 198.576ZM322.619 198.161L310.714 198.14L310.712 199.208L322.617 199.229L322.619 198.161ZM324.796 198.163C324.076 198.224 323.365 198.233 322.671 198.164L322.565 199.227C323.339 199.304 324.117 199.292 324.886 199.227L324.796 198.163ZM324.925 198.161H324.841V199.229H324.925V198.161ZM328.474 197.279C327.321 197.761 326.105 198.052 324.877 198.163L324.973 199.227C326.305 199.107 327.627 198.79 328.886 198.265L328.474 197.279ZM346.185 191.007L328.502 197.269L328.858 198.276L346.542 192.014L346.185 191.007ZM347.267 187.21C348.203 188.563 347.643 190.392 346.156 191.018L346.571 192.003C348.672 191.118 349.475 188.522 348.145 186.602L347.267 187.21Z"
          fill="#1A1A1A"/>
    <path d="M156.45 112.137C154.415 113.532 140.738 117.088 140.465 119.574C140.465 119.574 144.965 137.163 140.36 140.446C127.9 149.319 123.914 166.719 123.914 166.719C123.914 166.719 156.785 191.336 244.154 165.492C244.154 165.492 245.203 155.025 229.313 147.431C224.782 145.26 220.744 141.998 218.195 137.551C216.223 134.111 215.919 132.653 215.395 129.569C213.926 120.947 190.128 89.0416 156.46 112.148L156.45 112.137Z"
          fill="black"/>
    <path d="M157.74 138.504C158.138 144.273 153.786 149.286 148.017 149.685C142.248 150.083 137.235 145.731 136.836 139.962C136.438 134.193 140.79 129.18 146.559 128.781C152.328 128.383 157.341 132.735 157.74 138.504Z"
          fill="white" stroke="#1A1A1A" stroke-width="1.0682" stroke-linecap="round" stroke-linejoin="round"/>
    <path d="M162.48 164.171L163.928 186.963C164.421 194.965 167.693 200.419 175.57 199.874C182.293 199.402 190.285 194.021 190.652 187.298L186.646 151.543L162.48 164.182V164.171Z"
          fill="white" stroke="#1A1A1A" stroke-width="1.0682" stroke-linecap="round" stroke-linejoin="round"/>
    <path d="M157.771 188.339L199.138 186.902C199.138 186.902 198.131 207.239 173.546 205.341C156.45 204.02 157.771 188.35 157.771 188.35V188.339Z"
          fill="white" stroke="#1A1A1A" stroke-width="1.0682" stroke-linecap="round" stroke-linejoin="round"/>
    <path d="M169.413 167.849C155.946 167.891 144.828 157.287 144.43 146.295L143.632 120.357C143.129 106.575 153.649 94.8808 167.399 93.9264C181.475 92.951 196.159 103.397 197.134 117.473L197.543 138.345C197.858 154.487 185.513 166.727 169.403 167.849H169.413Z"
          fill="white" stroke="#1A1A1A" stroke-width="1.0682" stroke-linecap="round" stroke-linejoin="round"/>
    <path d="M158.548 137.156L157.771 143.596L161.096 143.722" stroke="black" stroke-width="0.943832"
          stroke-linecap="round" stroke-linejoin="round"/>
    <path d="M171.847 121.437C171.847 121.437 164.411 120.829 164.337 123.849C164.337 123.849 164.337 125.894 170.829 126.304C177.322 126.713 179.01 126.23 179.598 124.311C180.196 122.381 175.34 121.447 171.847 121.426V121.437Z"
          fill="black"/>
    <path d="M150.283 125.856C150.283 125.856 155.915 125.405 156.45 128.122C156.45 128.122 156.765 129.968 151.835 130.251C146.905 130.534 145.374 129.926 145.28 128.363C145.175 126.506 147.608 125.835 150.293 125.856H150.283Z"
          fill="black"/>
    <path d="M153.554 134.704C153.596 136.016 152.569 137.117 151.258 137.159C149.946 137.201 148.845 136.173 148.803 134.862C148.761 133.551 149.789 132.449 151.1 132.407C152.411 132.366 153.513 133.393 153.554 134.704Z"
          fill="black"/>
    <path d="M173.535 134.042C173.577 135.353 172.549 136.455 171.238 136.497C169.927 136.539 168.826 135.511 168.784 134.2C168.742 132.889 169.77 131.787 171.081 131.745C172.392 131.703 173.493 132.731 173.535 134.042Z"
          fill="black"/>
    <path d="M166.581 148.203C166.581 148.203 163.068 146.598 158.809 150.269" stroke="black" stroke-width="0.943832"
          stroke-linecap="round" stroke-linejoin="round"/>
    <path d="M175.738 89.458C172.382 89.2797 168.994 89.6468 165.753 90.5173C157.687 92.6674 143.213 98.6354 140.727 114.127C139.899 118.207 140.476 119.581 140.476 119.581C140.476 119.581 167.515 120.64 183.51 113.088C185.807 122.832 187.936 128.863 197.564 138.345L206.113 125.507L215.73 134.128C215.793 134.453 215.783 91.5871 175.759 89.458H175.738Z"
          fill="black"/>
    <path d="M211.577 138.613C211.976 144.382 207.623 149.396 201.854 149.794C196.086 150.193 191.072 145.84 190.673 140.071C190.275 134.303 194.628 129.289 200.396 128.891C206.165 128.492 211.178 132.845 211.577 138.613Z"
          fill="white" stroke="#1A1A1A" stroke-width="1.0682" stroke-linecap="round" stroke-linejoin="round"/>
    <path d="M197.124 142.337C197.124 142.337 196.6 134.764 203.921 135.446" stroke="black" stroke-width="0.943832"
          stroke-linecap="round" stroke-linejoin="round"/>
</svg>