<svg fill="none" height="200" viewBox="0 0 727 200" width="727" xmlns="http://www.w3.org/2000/svg">
    <path d="M35.6527 0H0V171.486H35.6527V0Z" fill="black" />
    <path
        d="M78.1231 99.4586L85.1013 89.7534L130.379 28.474H85.5023L44.6361 84.9809C38.3798 93.6034 38.3798 105.234 44.6361 113.856L86.4247 171.526H130.379L78.1231 99.4586Z"
        fill="black" />
    <path
        d="M321.676 28.474L288.069 108.963L254.02 28.474H217.806L242.871 86.906L255.785 117.786L258.191 123.561C261.4 131.221 267.816 136.836 275.556 139.001L250.09 199.96H286.264L357.85 28.474H321.676Z"
        fill="black" />
    <path
        d="M166.272 28.474C150.672 28.474 137.999 41.147 137.999 56.7475V171.486H173.651V64.1267H210.186V28.474H166.272Z"
        fill="black" />
    <path
        d="M575.657 64.1267V28.474H539.122V0H503.469V28.474V64.1267V143.212C503.469 158.813 516.142 171.486 531.743 171.486H575.657V135.833H539.122V64.1267H575.657Z"
        fill="black" />
    <path
        d="M654.742 28.474C615.32 28.474 583.236 60.5574 583.236 99.9799C583.236 139.402 615.32 171.486 654.742 171.486C694.165 171.486 726.248 139.402 726.248 99.9799C726.248 60.5574 694.205 28.474 654.742 28.474ZM654.742 136.796C634.45 136.796 617.927 120.273 617.927 99.9799C617.927 79.6872 634.45 63.1642 654.742 63.1642C675.035 63.1642 691.558 79.6872 691.558 99.9799C691.558 120.273 675.035 136.796 654.742 136.796Z"
        fill="black" />
    <path d="M401.123 0H365.47V171.486H401.123V0Z" fill="black" />
    <path
        d="M443.593 99.4586L450.571 89.7534L495.849 28.474H450.973L410.106 84.9809C403.85 93.6034 403.85 105.234 410.106 113.856L451.895 171.526H495.849L443.593 99.4586Z"
        fill="black" />
</svg>
