<svg width="25" height="25" viewBox="0 0 25 25" fill="none" xmlns="http://www.w3.org/2000/svg">
<path fill-rule="evenodd" clip-rule="evenodd" d="M15.0162 1.33386H20.8628C22.4122 1.33386 23.6668 2.58853 23.6668 4.13653V9.9832C23.6668 10.7272 23.3708 11.4392 22.8455 11.9659L11.6322 23.1792C10.5375 24.2739 8.76282 24.2739 7.66816 23.1792L1.82149 17.3325C0.726822 16.2379 0.726822 14.4632 1.82149 13.3685L13.0348 2.1552C13.5602 1.62986 14.2735 1.33386 15.0162 1.33386Z" stroke="black" stroke-width="1.5" stroke-linecap="round" stroke-linejoin="round"/>
<path d="M12.8532 12.1467L13.5866 11.4134" stroke="black" stroke-width="1.5" stroke-linecap="round" stroke-linejoin="round"/>
<path d="M8.42689 16.5733L7.69355 17.3066" stroke="black" stroke-width="1.5" stroke-linecap="round" stroke-linejoin="round"/>
<path d="M7.68415 14.761C7.56281 15.2637 7.67215 15.805 8.06548 16.1984L8.43348 16.5664L8.87215 17.005C9.44281 17.5757 10.3681 17.5757 10.9388 17.005C11.4121 16.5317 11.5041 15.7957 11.1588 15.221L10.1255 13.4957C9.78148 12.921 9.87215 12.185 10.3455 11.7117C10.9161 11.141 11.8415 11.141 12.4121 11.7117L12.8508 12.1504L13.2188 12.5184C13.6108 12.9104 13.7201 13.4504 13.6015 13.9517" stroke="black" stroke-width="1.5" stroke-linecap="round" stroke-linejoin="round"/>
<path d="M18.0765 6.92382C18.2697 7.117 18.2697 7.4302 18.0765 7.62338C17.8833 7.81656 17.5701 7.81656 17.3769 7.62338C17.1838 7.4302 17.1838 7.117 17.3769 6.92382C17.5701 6.73064 17.8833 6.73064 18.0765 6.92382" stroke="black" stroke-width="1.5" stroke-linecap="round" stroke-linejoin="round"/>
</svg>
