<svg width="24" height="24" viewBox="0 0 24 24" fill="none" xmlns="http://www.w3.org/2000/svg">
<path fill-rule="evenodd" clip-rule="evenodd" d="M11.9998 12.5002C14.348 12.5002 16.2516 10.5966 16.2516 8.24841C16.2516 5.90023 14.348 3.99664 11.9998 3.99664C9.65163 3.99664 7.74805 5.90023 7.74805 8.24841C7.74805 10.5966 9.65163 12.5002 11.9998 12.5002Z" stroke="black" stroke-width="1.5" stroke-linecap="round" stroke-linejoin="round"/>
<path d="M3.99658 20.0033C3.99658 17.5172 6.01242 15.5014 8.49846 15.5014H11.0825" stroke="black" stroke-width="1.5" stroke-linecap="round" stroke-linejoin="round"/>
<path fill-rule="evenodd" clip-rule="evenodd" d="M21.0035 18.0025C21.0035 19.6632 19.6629 21.0037 18.0022 21.0037C16.3415 21.0037 15.001 19.6632 15.001 18.0025C15.001 16.3418 16.3415 15.0012 18.0022 15.0012C19.6629 15.0012 21.0035 16.3418 21.0035 18.0025Z" stroke="black" stroke-width="1.5" stroke-linecap="round" stroke-linejoin="round"/>
<path d="M15.8804 20.1244L20.1231 15.8816" stroke="black" stroke-width="1.5" stroke-linecap="round" stroke-linejoin="round"/>
</svg>
