<svg fill="none" height="16" viewBox="0 0 17 16" width="17" xmlns="http://www.w3.org/2000/svg">
    <path
        d="M15.6189 5.87136L15.0395 5.29199V4.46934C15.0395 2.80804 13.6919 1.46044 12.0306 1.46044H11.208L10.6286 0.881064C9.45388 -0.293688 7.54611 -0.293688 6.37136 0.881064L5.79198 1.46044H4.96934C3.30804 1.46044 1.96044 2.80804 1.96044 4.46934V5.29199L1.38106 5.87136C0.206312 7.04611 0.206312 8.95389 1.38106 10.1286L1.96044 10.708V11.5307C1.96044 13.192 3.30804 14.5396 4.96934 14.5396H5.79198L6.37136 15.1189C7.54611 16.2937 9.45388 16.2937 10.6286 15.1189L11.208 14.5396H12.0306C13.6919 14.5396 15.0395 13.192 15.0395 11.5307V10.708L15.6189 10.1286C16.7937 8.95389 16.7937 7.04611 15.6189 5.87136Z"
        fill="#D4F768" />
    <path d="M11.4629 5.96094L7.38885 10.035L5.537 8.18316" stroke="#232325" stroke-linecap="round"
        stroke-linejoin="round" stroke-width="1.77778" />
</svg>
