<svg fill="none" height="24" viewBox="0 0 24 24" width="24" xmlns="http://www.w3.org/2000/svg">
    <path d="M21 5V4C21 3.4 20.6 3 20 3H19" stroke="black" stroke-linecap="round" stroke-linejoin="round"
        stroke-width="1.5" />
    <path d="M21 15V16C21 16.6 20.6 17 20 17H19" stroke="black" stroke-linecap="round" stroke-linejoin="round"
        stroke-width="1.5" />
    <path d="M7 5V4C7 3.4 7.4 3 8 3H9" stroke="black" stroke-linecap="round" stroke-linejoin="round"
        stroke-width="1.5" />
    <path d="M13 3H15" stroke="black" stroke-linecap="round" stroke-linejoin="round" stroke-width="1.5" />
    <path
        d="M20.25 11C20.25 11.4142 20.5858 11.75 21 11.75C21.4142 11.75 21.75 11.4142 21.75 11H20.25ZM21.75 9C21.75 8.58579 21.4142 8.25 21 8.25C20.5858 8.25 20.25 8.58579 20.25 9H21.75ZM21.75 11V9H20.25V11H21.75Z"
        fill="black" />
    <path clip-rule="evenodd"
        d="M14 21H5C3.9 21 3 20.1 3 19V10C3 8.9 3.9 8 5 8H14C15.1 8 16 8.9 16 10V19C16 20.1 15.1 21 14 21Z"
        fill-rule="evenodd" stroke="black" stroke-linecap="round" stroke-linejoin="round" stroke-width="1.5" />
    <path d="M9.5 12V17" stroke="black" stroke-linecap="round" stroke-linejoin="round" stroke-width="1.5" />
    <path d="M12 14.5H7" stroke="black" stroke-linecap="round" stroke-linejoin="round" stroke-width="1.5" />
</svg>
